<svg xmlns="http://www.w3.org/2000/svg" xmlns:xlink="http://www.w3.org/1999/xlink" id="Layer_1" x="0" y="0" version="1.1" viewBox="0 0 14.4 18" style="enable-background:new 0 0 14.4 18" xml:space="preserve"><style type="text/css">.st0{fill:#94399e}</style><path d="M1.8,18c-0.3,0-0.6-0.1-0.8-0.2c-0.6-0.3-1-0.9-1-1.6V9c0-1,0.8-1.8,1.8-1.8S3.6,8,3.6,9v3.8L9.4,9L0.8,3.3	C0,2.7-0.2,1.6,0.3,0.8C0.9,0,2-0.2,2.8,0.3l10.8,7.2c0.5,0.3,0.8,0.9,0.8,1.5s-0.3,1.2-0.8,1.5L2.8,17.7C2.5,17.9,2.1,18,1.8,18z" class="st0"/></svg>